<svg xmlns="http://www.w3.org/2000/svg" viewBox="0 0 369 372" width="369" height="372">
  <g fill="#333333" fill-rule="evenodd">
    <path d="M 122 194 L 115 200 L 67 247 L 58 256 L 55 260 L 53 264 L 50 270 L 49 274 L 49 291 L 50 295 L 52 300 L 53 302 L 56 307 L 84 335 L 121 371 L 177 371 L 88 282 L 88 280 L 95 273 L 143 227 L 176 194 Z M 1 194 L 1 371 L 41 371 L 41 194 Z M 322 193 L 193 194 L 193 233 L 328 234 L 328 326 L 327 328 L 323 332 L 236 332 L 234 331 L 231 328 L 230 326 L 230 322 L 231 320 L 232 318 L 233 317 L 235 316 L 237 315 L 242 313 L 255 308 L 276 300 L 292 295 L 297 292 L 310 288 L 315 286 L 317 285 L 318 246 L 316 246 L 313 248 L 305 250 L 285 258 L 226 278 L 218 281 L 212 284 L 209 286 L 199 296 L 197 299 L 195 302 L 194 304 L 193 306 L 192 309 L 191 312 L 190 317 L 190 333 L 191 337 L 192 341 L 194 346 L 197 351 L 200 355 L 207 362 L 210 364 L 213 366 L 219 369 L 222 370 L 226 371 L 332 371 L 336 370 L 339 369 L 347 365 L 351 362 L 358 355 L 361 351 L 363 347 L 366 341 L 367 338 L 368 333 L 368 232 L 367 228 L 366 225 L 365 222 L 362 216 L 360 213 L 357 209 L 353 205 L 349 202 L 346 200 L 338 196 L 335 195 L 331 194 Z M 230 2 L 225 3 L 222 4 L 219 5 L 211 9 L 208 11 L 199 20 L 197 23 L 195 27 L 192 33 L 191 37 L 190 41 L 190 141 L 191 146 L 192 149 L 193 152 L 194 154 L 195 156 L 198 161 L 208 171 L 211 173 L 214 175 L 216 176 L 218 177 L 221 178 L 224 179 L 228 180 L 365 180 L 365 141 L 230 140 L 230 48 L 231 46 L 235 42 L 239 41 L 320 41 L 323 42 L 325 43 L 326 44 L 326 45 L 328 47 L 328 52 L 327 54 L 323 58 L 320 59 L 313 62 L 292 70 L 284 72 L 245 87 L 240 89 L 240 128 L 242 127 L 247 126 L 255 123 L 264 120 L 323 99 L 337 94 L 342 92 L 347 89 L 350 87 L 359 78 L 361 75 L 363 72 L 364 70 L 365 68 L 366 65 L 367 62 L 368 57 L 368 41 L 367 36 L 366 33 L 364 28 L 361 23 L 359 20 L 350 11 L 347 9 L 343 7 L 337 4 L 333 3 L 328 2 Z M 42 2 L 36 3 L 33 4 L 30 5 L 22 9 L 19 11 L 10 20 L 8 23 L 6 26 L 5 28 L 4 30 L 3 33 L 2 36 L 1 40 L 1 180 L 41 180 L 42 41 L 179 41 L 179 2 Z"/>
  </g>
</svg>
