<svg width="128" height="128" viewBox="0 0 128 128" fill="none" xmlns="http://www.w3.org/2000/svg">
<path d="M39.4646 55.1707C39.4646 56.5403 39.6131 57.6507 39.8731 58.4651C40.1701 59.2794 40.5415 60.1677 41.0613 61.1301C41.247 61.4262 41.3213 61.7224 41.3213 61.9815C41.3213 62.3516 41.0985 62.7218 40.6158 63.0919L38.2763 64.6465C37.9421 64.8686 37.6079 64.9797 37.3109 64.9797C36.9395 64.9797 36.5682 64.7946 36.1969 64.4615C35.677 63.9062 35.2314 63.314 34.8601 62.7218C34.4887 62.0925 34.1174 61.3892 33.7089 60.5379C30.8125 63.9433 27.1735 65.6459 22.7917 65.6459C19.6725 65.6459 17.1846 64.7576 15.3651 62.9809C13.5455 61.2042 12.6172 58.8352 12.6172 55.874C12.6172 52.7277 13.7312 50.1737 15.9963 48.2489C18.2615 46.3242 21.2693 45.3618 25.094 45.3618C26.3565 45.3618 27.6562 45.4728 29.0301 45.6579C30.4041 45.843 31.8151 46.1391 33.3005 46.4722V43.7701C33.3005 40.957 32.7063 38.9952 31.5552 37.8478C30.3669 36.7003 28.3617 36.1451 25.5025 36.1451C24.2028 36.1451 22.866 36.2931 21.4921 36.6263C20.1181 36.9594 18.7813 37.3666 17.4817 37.8848C16.8875 38.1439 16.4419 38.2919 16.182 38.366C15.9221 38.44 15.7364 38.477 15.5879 38.477C15.068 38.477 14.8081 38.1069 14.8081 37.3295V35.5158C14.8081 34.9236 14.8823 34.4794 15.068 34.2203C15.2537 33.9612 15.5879 33.7021 16.1077 33.443C17.4074 32.7767 18.967 32.2215 20.7865 31.7773C22.6061 31.2961 24.537 31.074 26.5793 31.074C30.9982 31.074 34.2288 32.0734 36.3083 34.0722C38.3506 36.071 39.3903 39.1063 39.3903 43.1779V55.1707H39.4646ZM24.3885 60.797C25.6139 60.797 26.8764 60.5749 28.2132 60.1307C29.55 59.6866 30.7383 58.8722 31.7409 57.7618C32.335 57.0585 32.7806 56.2812 33.0034 55.3928C33.2262 54.5045 33.3747 53.431 33.3747 52.1725V50.6179C32.2979 50.3588 31.1467 50.1367 29.9585 49.9886C28.7702 49.8406 27.6191 49.7666 26.4679 49.7666C23.98 49.7666 22.1605 50.2477 20.9351 51.2472C19.7097 52.2466 19.1155 53.6531 19.1155 55.5039C19.1155 57.2436 19.5611 58.5391 20.4895 59.4274C21.3807 60.3528 22.6803 60.797 24.3885 60.797ZM54.2066 64.7946C53.5382 64.7946 53.0926 64.6836 52.7955 64.4245C52.4984 64.2024 52.2385 63.6842 52.0157 62.9809L43.2894 34.3684C43.0666 33.6281 42.9552 33.1469 42.9552 32.8878C42.9552 32.2955 43.2522 31.9624 43.8464 31.9624H47.4854C48.191 31.9624 48.6737 32.0734 48.9336 32.3325C49.2307 32.5546 49.4535 33.0728 49.6763 33.7761L55.9147 58.28L61.7075 33.7761C61.8932 33.0358 62.116 32.5546 62.413 32.3325C62.7101 32.1104 63.23 31.9624 63.8984 31.9624H66.869C67.5746 31.9624 68.0573 32.0734 68.3544 32.3325C68.6514 32.5546 68.9114 33.0728 69.0599 33.7761L74.927 58.5761L81.3511 33.7761C81.5739 33.0358 81.8338 32.5546 82.0937 32.3325C82.3908 32.1104 82.8735 31.9624 83.5419 31.9624H86.9953C87.5895 31.9624 87.9237 32.2585 87.9237 32.8878C87.9237 33.0728 87.8865 33.2579 87.8494 33.48C87.8123 33.7021 87.738 33.9982 87.5895 34.4054L78.6403 63.0179C78.4175 63.7582 78.1576 64.2394 77.8605 64.4615C77.5635 64.6836 77.0807 64.8316 76.4495 64.8316H73.256C72.5504 64.8316 72.0677 64.7206 71.7706 64.4615C71.4736 64.2024 71.2136 63.7212 71.0651 62.9809L65.3094 39.1063L59.5909 62.9439C59.4052 63.6842 59.1824 64.1654 58.8854 64.4245C58.5883 64.6836 58.0684 64.7946 57.4 64.7946H54.2066ZM101.923 65.794C99.992 65.794 98.0611 65.5719 96.2044 65.1277C94.3477 64.6836 92.8995 64.2024 91.9341 63.6471C91.3399 63.314 90.9315 62.9439 90.7829 62.6107C90.6344 62.2776 90.5601 61.9074 90.5601 61.5743V59.6865C90.5601 58.9092 90.8572 58.5391 91.4142 58.5391C91.637 58.5391 91.8598 58.5761 92.0826 58.6501C92.3054 58.7242 92.6396 58.8722 93.0109 59.0203C94.2735 59.5755 95.6474 60.0197 97.0956 60.3158C98.5809 60.6119 100.029 60.76 101.514 60.76C103.854 60.76 105.673 60.3528 106.936 59.5385C108.198 58.7242 108.867 57.5397 108.867 56.0221C108.867 54.9857 108.533 54.1343 107.864 53.431C107.196 52.7277 105.933 52.0985 104.114 51.5063L98.7295 49.8406C96.0187 48.9892 94.0135 47.7307 92.7881 46.0651C91.5627 44.4364 90.9315 42.6227 90.9315 40.6979C90.9315 39.1433 91.2657 37.7737 91.9341 36.5893C92.6025 35.4048 93.4937 34.3684 94.6077 33.554C95.7217 32.7027 96.9842 32.0734 98.4695 31.6293C99.9549 31.1851 101.514 31 103.148 31C103.965 31 104.819 31.037 105.636 31.1481C106.49 31.2591 107.27 31.4072 108.05 31.5552C108.793 31.7403 109.498 31.9254 110.167 32.1475C110.835 32.3696 111.355 32.5916 111.726 32.8137C112.246 33.1098 112.617 33.406 112.84 33.7391C113.063 34.0352 113.174 34.4424 113.174 34.9606V36.7003C113.174 37.4776 112.877 37.8848 112.32 37.8848C112.023 37.8848 111.54 37.7367 110.909 37.4406C108.793 36.4782 106.416 35.997 103.78 35.997C101.663 35.997 99.992 36.3301 98.8409 37.0334C97.6897 37.7367 97.0956 38.8101 97.0956 40.3278C97.0956 41.3642 97.4669 42.2525 98.2096 42.9558C98.9523 43.6591 100.326 44.3624 102.294 44.9916L107.567 46.6573C110.241 47.5086 112.172 48.6931 113.323 50.2107C114.474 51.7283 115.031 53.468 115.031 55.3928C115.031 56.9845 114.697 58.428 114.066 59.6865C113.397 60.9451 112.506 62.0555 111.355 62.9439C110.204 63.8692 108.83 64.5355 107.233 65.0167C105.562 65.5349 103.817 65.794 101.923 65.794Z" fill="#252F3E"/>
<path fill-rule="evenodd" clip-rule="evenodd" d="M108.94 83.7841C96.7235 92.7787 78.9738 97.5536 63.7119 97.5536C42.3231 97.5536 23.0509 89.6695 8.49462 76.5662C7.34349 75.5298 8.38322 74.1232 9.75716 74.9375C25.5017 84.0432 44.9225 89.5584 65.0116 89.5584C78.5653 89.5584 93.4558 86.7453 107.158 80.971C109.2 80.0456 110.946 82.3035 108.94 83.7841Z" fill="#FF9900"/>
<path fill-rule="evenodd" clip-rule="evenodd" d="M114.028 78.0093C112.468 76.0105 103.704 77.0469 99.7312 77.5281C98.5429 77.6762 98.3573 76.6398 99.4341 75.8624C106.415 70.9765 117.889 72.383 119.226 74.0117C120.563 75.6774 118.855 87.115 112.319 92.5932C111.317 93.4445 110.351 93.0003 110.797 91.8899C112.282 88.2254 115.587 79.9711 114.028 78.0093Z" fill="#FF9900"/>
</svg>
