<svg width="128" height="128" viewBox="0 0 128 128" fill="none" xmlns="http://www.w3.org/2000/svg">
<g clip-path="url(#clip0_1066_8)">
<path d="M117.227 56.3351C114.555 54.537 107.533 53.769 102.428 55.1435C102.152 50.0605 99.5307 45.777 94.734 42.0397L92.9583 40.8481L91.775 42.6347C89.4487 46.1646 88.4687 50.8673 88.816 55.1421C89.0899 57.7758 90.0065 60.7366 91.775 62.8848C85.1306 66.7375 79.0065 65.8629 51.8841 65.8629H10.0084C9.88591 71.9848 10.8703 83.7617 18.3622 93.3486C19.1895 94.4076 20.0975 95.432 21.082 96.4189C27.1729 102.516 36.3756 106.987 50.1372 107C71.1312 107.019 89.1187 95.6755 100.06 68.2474C103.66 68.3065 113.164 68.8929 117.815 59.9082C117.929 59.7569 118.998 57.5251 118.998 57.5251L117.226 56.3336L117.227 56.3351ZM37.337 50.7362H25.5615V62.5073H37.337V50.7362ZM52.5499 50.7362H40.7745V62.5073H52.5499V50.7362ZM67.7629 50.7362H55.9874V62.5073H67.7629V50.7362ZM82.9758 50.7362H71.2004V62.5073H82.9758V50.7362ZM22.124 50.7362H10.3486V62.5073H22.124V50.7362ZM37.337 35.8688H25.5615V47.64H37.337V35.8688ZM52.5499 35.8688H40.7745V47.64H52.5499V35.8688ZM67.7629 35.8688H55.9874V47.64H67.7629V35.8688ZM67.7629 21H55.9874V32.7711H67.7629V21Z" fill="#1D63ED"/>
</g>
<defs>
<clipPath id="clip0_1066_8">
<rect width="109" height="86" fill="white" transform="translate(10 21)"/>
</clipPath>
</defs>
</svg>
