<svg width="345" height="130" viewBox="0 0 345 130" fill="none" xmlns="http://www.w3.org/2000/svg">
<rect width="344.273" height="129.201" rx="12" fill="white"/>
<path d="M24.2083 77.7181H16V28.9473H24.2083V77.7181Z" fill="#063F74"/>
<path d="M52.6286 40.3848C56.9463 40.3848 60.3213 41.6504 62.7536 44.1764C65.1963 46.7077 66.4202 50.1973 66.4202 54.6556V77.7181H58.4202V56.8848C58.4202 54.1087 57.6286 51.9212 56.0452 50.3223C54.4619 48.7129 52.2796 47.9056 49.5036 47.9056C46.5296 47.9473 44.0973 48.9004 42.2119 50.7598C40.3369 52.6243 39.2588 55.041 38.9827 58.0098V77.7181H30.9619V40.6556H38.9827V47.7598C41.4827 42.8431 46.0296 40.3848 52.6286 40.3848Z" fill="#063F74"/>
<path d="M93.2365 40.3848C97.5542 40.3848 100.929 41.6504 103.361 44.1764C105.804 46.7077 107.028 50.1973 107.028 54.6556V77.7181H99.0282V56.8848C99.0282 54.1087 98.2365 51.9212 96.6532 50.3223C95.0698 48.7129 92.8875 47.9056 90.1115 47.9056C87.1375 47.9473 84.7052 48.9004 82.8198 50.7598C80.9448 52.6243 79.8667 55.041 79.5907 58.0098V77.7181H71.5698V40.6556H79.5907V47.7598C82.0907 42.8431 86.6375 40.3848 93.2365 40.3848Z" fill="#063F74"/>
<path d="M128.074 40.3848C133.782 40.3848 138.417 42.1139 141.99 45.5723C145.574 49.0306 147.365 53.5671 147.365 59.1764C147.365 64.7598 145.574 69.2962 141.99 72.7806C138.417 76.2546 133.782 77.9889 128.074 77.9889C122.308 77.9889 117.636 76.2546 114.053 72.7806C110.48 69.2962 108.699 64.7598 108.699 59.1764C108.699 53.5671 110.48 49.0306 114.053 45.5723C117.636 42.1139 122.308 40.3848 128.074 40.3848ZM128.074 47.2806C124.725 47.2806 121.996 48.4004 119.886 50.6348C117.772 52.8587 116.72 55.7337 116.72 59.2598C116.72 62.8327 117.772 65.7337 119.886 67.9681C121.996 70.1921 124.72 71.3014 128.053 71.3014C131.397 71.3014 134.115 70.1921 136.199 67.9681C138.292 65.7337 139.345 62.8327 139.345 59.2598C139.345 55.7337 138.287 52.8587 136.178 50.6348C134.063 48.4004 131.365 47.2806 128.074 47.2806Z" fill="#063F74"/>
<path d="M166.931 77.7178H158.639L144.285 40.6553H152.66L162.972 69.8428L173.139 40.6553H181.139L166.931 77.7178Z" fill="#063F74"/>
<path d="M203.363 77.7181V73.1973C200.707 76.4473 196.618 78.0723 191.092 78.0723C187.144 78.0723 183.988 76.9994 181.613 74.8431C179.248 72.6764 178.071 69.9212 178.071 66.5723C178.071 63.1868 179.3 60.4889 181.759 58.4889C184.228 56.4889 187.665 55.4681 192.071 55.4264H203.3V54.3014C203.3 51.9421 202.54 50.1139 201.03 48.8223C199.514 47.5202 197.321 46.8639 194.446 46.8639C190.863 46.8639 187.217 48.1139 183.509 50.6139L180.238 45.0514C183.071 43.3743 185.613 42.1764 187.863 41.4681C190.113 40.7493 192.889 40.3848 196.196 40.3848C200.931 40.3848 204.597 41.541 207.196 43.8431C209.79 46.1348 211.118 49.3223 211.175 53.4056L211.238 77.7181H203.363ZM192.78 71.7181C195.613 71.7181 198.014 71.0618 199.988 69.7389C201.957 68.4212 203.061 66.7389 203.3 64.6973V61.2806H193.259C190.603 61.2806 188.66 61.666 187.425 62.4264C186.201 63.1921 185.592 64.4577 185.592 66.2181C185.592 67.9004 186.228 69.2389 187.509 70.2389C188.785 71.2285 190.54 71.7181 192.78 71.7181Z" fill="#063F74"/>
<path d="M235.337 69.2181L237.358 75.3431C234.285 77.166 231.238 78.0723 228.212 78.0723C225.196 78.0723 222.712 77.1712 220.753 75.3639C218.806 73.5462 217.837 70.8431 217.837 67.2598V48.0306H212.628V42.0514H217.837V31.8848H225.795V42.0514H236.733V48.0306H225.795V65.8014C225.795 67.666 226.113 68.9681 226.753 69.7181C227.404 70.4577 228.404 70.8223 229.753 70.8223C231.238 70.8223 233.097 70.291 235.337 69.2181Z" fill="#063F74"/>
<path d="M239.779 26.5514C240.665 25.6504 241.785 25.1973 243.133 25.1973C244.477 25.1973 245.592 25.6504 246.467 26.5514C247.352 27.4577 247.8 28.6296 247.8 30.0723C247.8 31.4629 247.352 32.6087 246.467 33.5098C245.592 34.416 244.477 34.8639 243.133 34.8639C241.785 34.8639 240.665 34.416 239.779 33.5098C238.904 32.6087 238.467 31.4629 238.467 30.0723C238.467 28.6296 238.904 27.4577 239.779 26.5514ZM247.092 77.7181H239.154V40.6556H247.092V77.7181Z" fill="#063F74"/>
<path d="M269.258 40.3848C274.967 40.3848 279.602 42.1139 283.175 45.5723C286.758 49.0306 288.55 53.5671 288.55 59.1764C288.55 64.7598 286.758 69.2962 283.175 72.7806C279.602 76.2546 274.967 77.9889 269.258 77.9889C263.493 77.9889 258.821 76.2546 255.237 72.7806C251.665 69.2962 249.883 64.7598 249.883 59.1764C249.883 53.5671 251.665 49.0306 255.237 45.5723C258.821 42.1139 263.493 40.3848 269.258 40.3848ZM269.258 47.2806C265.909 47.2806 263.18 48.4004 261.071 50.6348C258.956 52.8587 257.904 55.7337 257.904 59.2598C257.904 62.8327 258.956 65.7337 261.071 67.9681C263.18 70.1921 265.904 71.3014 269.237 71.3014C272.581 71.3014 275.3 70.1921 277.383 67.9681C279.477 65.7337 280.529 62.8327 280.529 59.2598C280.529 55.7337 279.472 52.8587 277.362 50.6348C275.248 48.4004 272.55 47.2806 269.258 47.2806Z" fill="#063F74"/>
<path d="M312.99 40.3848C317.308 40.3848 320.683 41.6504 323.115 44.1764C325.558 46.7077 326.782 50.1973 326.782 54.6556V77.7181H318.782V56.8848C318.782 54.1087 317.99 51.9212 316.407 50.3223C314.823 48.7129 312.641 47.9056 309.865 47.9056C306.891 47.9473 304.459 48.9004 302.573 50.7598C300.698 52.6243 299.62 55.041 299.344 58.0098V77.7181H291.323V40.6556H299.344V47.7598C301.844 42.8431 306.391 40.3848 312.99 40.3848Z" fill="#063F74"/>
<path d="M114.951 91.6702H118.43V107.399H128.18V110.337H114.951V91.6702Z" fill="#063F74"/>
<path d="M142.943 106.024H133.609L131.776 110.337H128.213L136.609 91.6702H140.026L148.443 110.337H144.818L142.943 106.024ZM141.797 103.295L138.276 95.1285L134.797 103.295H141.797Z" fill="#063F74"/>
<path d="M163.953 100.628C164.979 100.962 165.791 101.524 166.39 102.316C167 103.108 167.307 104.097 167.307 105.274C167.307 106.889 166.682 108.139 165.432 109.024C164.192 109.899 162.39 110.337 160.015 110.337H150.724V91.6702H159.474C161.682 91.6702 163.375 92.1025 164.557 92.9618C165.75 93.8264 166.349 95.0139 166.349 96.5243C166.349 97.4566 166.13 98.2743 165.703 98.9827C165.286 99.691 164.703 100.243 163.953 100.628ZM154.203 94.3993V99.5452H159.099C160.307 99.5452 161.234 99.3316 161.89 98.8993C162.541 98.4566 162.869 97.816 162.869 96.9827C162.869 96.1233 162.541 95.4775 161.89 95.0452C161.234 94.6181 160.307 94.3993 159.099 94.3993H154.203ZM159.807 107.608C162.484 107.608 163.828 106.712 163.828 104.92C163.828 103.128 162.484 102.233 159.807 102.233H154.203V107.608H159.807Z" fill="#063F74"/>
<path d="M187.59 88.7632C190.048 88.7632 192.225 89.2736 194.131 90.284C196.048 91.284 197.538 92.6694 198.611 94.4299C199.678 96.1799 200.215 98.1694 200.215 100.388C200.215 101.961 199.986 103.305 199.527 104.43C199.079 105.555 198.449 106.419 197.631 107.013C196.808 107.597 195.845 107.888 194.736 107.888C193.829 107.888 193.069 107.695 192.444 107.305C191.829 106.919 191.381 106.341 191.09 105.576C190.131 107.117 188.611 107.888 186.527 107.888C185.387 107.888 184.345 107.607 183.402 107.034C182.47 106.466 181.736 105.675 181.194 104.659C180.652 103.633 180.381 102.461 180.381 101.138C180.381 99.8465 180.652 98.6903 181.194 97.659C181.736 96.633 182.47 95.8413 183.402 95.284C184.329 94.7163 185.371 94.4299 186.527 94.4299C188.288 94.4299 189.657 95.0132 190.631 96.1799V94.6174H194.256V103.242C194.256 104.383 194.683 104.951 195.548 104.951C196.173 104.951 196.657 104.586 197.006 103.847C197.35 103.097 197.527 101.966 197.527 100.451C197.527 98.659 197.111 97.0757 196.277 95.7007C195.454 94.3153 194.288 93.2371 192.777 92.4715C191.277 91.6955 189.548 91.3049 187.59 91.3049C185.642 91.3049 183.913 91.7215 182.402 92.5549C180.902 93.3778 179.736 94.5132 178.902 95.9715C178.079 97.4299 177.673 99.0861 177.673 100.93C177.673 102.82 178.079 104.503 178.902 105.972C179.72 107.43 180.871 108.565 182.361 109.388C183.845 110.222 185.553 110.638 187.486 110.638C189.413 110.638 191.163 110.242 192.736 109.451L193.59 111.909C192.798 112.326 191.85 112.643 190.756 112.867C189.657 113.086 188.569 113.201 187.486 113.201C184.97 113.201 182.741 112.664 180.798 111.597C178.866 110.539 177.366 109.081 176.298 107.222C175.225 105.362 174.694 103.263 174.694 100.93C174.694 98.6121 175.225 96.5288 176.298 94.6799C177.381 92.8361 178.892 91.3882 180.84 90.3465C182.798 89.2944 185.048 88.7632 187.59 88.7632ZM187.361 104.826C188.329 104.826 189.131 104.503 189.756 103.847C190.381 103.195 190.694 102.294 190.694 101.138C190.694 100.003 190.381 99.1121 189.756 98.4715C189.131 97.8361 188.329 97.5132 187.361 97.5132C186.361 97.5132 185.553 97.8413 184.944 98.4924C184.345 99.133 184.048 100.013 184.048 101.138C184.048 102.279 184.345 103.18 184.944 103.847C185.553 104.503 186.361 104.826 187.361 104.826Z" fill="#740606"/>
<path d="M223.387 91.8035V110.47H220.553L210.241 97.8243V110.47H206.803V91.8035H209.657L219.949 104.449V91.8035H223.387Z" fill="#740606"/>
<path d="M229.52 94.741H223.332V91.8035H239.165V94.741H232.978V110.47H229.52V94.741Z" fill="#740606"/>
<path d="M247.15 110.741C244.567 110.741 242.551 110.022 241.108 108.574C239.676 107.116 238.962 105.043 238.962 102.345V91.8035H242.421V102.199C242.421 105.866 244.004 107.699 247.171 107.699C250.306 107.699 251.879 105.866 251.879 102.199V91.8035H255.296V102.345C255.296 105.043 254.577 107.116 253.15 108.574C251.718 110.022 249.718 110.741 247.15 110.741Z" fill="#740606"/>
<path d="M270.81 110.741C268.919 110.741 267.211 110.335 265.685 109.512C264.169 108.679 262.982 107.533 262.122 106.074C261.258 104.616 260.831 102.97 260.831 101.137C260.831 99.3035 261.268 97.6577 262.143 96.1994C263.018 94.741 264.211 93.6056 265.726 92.7827C267.252 91.9494 268.956 91.5327 270.831 91.5327C272.357 91.5327 273.752 91.8035 275.018 92.3452C276.278 92.8765 277.351 93.6473 278.226 94.6577L275.976 96.7619C274.627 95.3035 272.966 94.5744 270.997 94.5744C269.716 94.5744 268.57 94.8608 267.56 95.4285C266.544 95.9858 265.752 96.7619 265.185 97.7619C264.612 98.7515 264.331 99.8765 264.331 101.137C264.331 102.403 264.612 103.533 265.185 104.533C265.752 105.522 266.544 106.298 267.56 106.866C268.57 107.423 269.716 107.699 270.997 107.699C272.966 107.699 274.627 106.965 275.976 105.491L278.226 107.616C277.351 108.632 276.273 109.408 274.997 109.949C273.732 110.475 272.336 110.741 270.81 110.741Z" fill="#740606"/>
<path d="M287.522 110.741C285.632 110.741 283.923 110.335 282.397 109.512C280.882 108.679 279.694 107.533 278.835 106.074C277.97 104.616 277.543 102.97 277.543 101.137C277.543 99.3035 277.98 97.6577 278.855 96.1994C279.73 94.741 280.923 93.6056 282.439 92.7827C283.965 91.9494 285.668 91.5327 287.543 91.5327C289.069 91.5327 290.465 91.8035 291.73 92.3452C292.991 92.8765 294.064 93.6473 294.939 94.6577L292.689 96.7619C291.34 95.3035 289.678 94.5744 287.71 94.5744C286.428 94.5744 285.283 94.8608 284.272 95.4285C283.257 95.9858 282.465 96.7619 281.897 97.7619C281.324 98.7515 281.043 99.8765 281.043 101.137C281.043 102.403 281.324 103.533 281.897 104.533C282.465 105.522 283.257 106.298 284.272 106.866C285.283 107.423 286.428 107.699 287.71 107.699C289.678 107.699 291.34 106.965 292.689 105.491L294.939 107.616C294.064 108.632 292.986 109.408 291.71 109.949C290.444 110.475 289.048 110.741 287.522 110.741Z" fill="#740606"/>
<path d="M295.588 91.8035H303.755C305.739 91.8035 307.505 92.1941 309.047 92.9701C310.599 93.7358 311.802 94.8243 312.651 96.241C313.51 97.6576 313.943 99.2931 313.943 101.137C313.943 102.986 313.51 104.616 312.651 106.033C311.802 107.449 310.599 108.548 309.047 109.324C307.505 110.09 305.739 110.47 303.755 110.47H295.588V91.8035ZM303.588 107.533C304.963 107.533 306.172 107.277 307.213 106.762C308.255 106.236 309.052 105.486 309.609 104.512C310.161 103.543 310.443 102.418 310.443 101.137C310.443 99.8608 310.161 98.7358 309.609 97.7618C309.052 96.7931 308.255 96.0483 307.213 95.5326C306.172 95.0066 304.963 94.741 303.588 94.741H299.068V107.533H303.588Z" fill="#740606"/>
<path d="M320.732 110.741C319.284 110.741 317.888 110.538 316.544 110.137C315.211 109.72 314.153 109.173 313.377 108.491L314.565 105.804C315.325 106.418 316.263 106.918 317.377 107.304C318.487 107.679 319.607 107.866 320.732 107.866C322.117 107.866 323.153 107.647 323.836 107.199C324.513 106.757 324.857 106.168 324.857 105.429C324.857 104.903 324.659 104.465 324.273 104.116C323.898 103.772 323.419 103.501 322.836 103.304C322.252 103.111 321.45 102.887 320.44 102.637C319.023 102.293 317.867 101.949 316.982 101.616C316.107 101.283 315.346 100.757 314.711 100.033C314.086 99.314 313.773 98.34 313.773 97.116C313.773 96.0744 314.049 95.1369 314.607 94.3035C315.174 93.4598 316.023 92.7827 317.148 92.2827C318.273 91.7827 319.653 91.5327 321.294 91.5327C322.43 91.5327 323.549 91.6785 324.648 91.9702C325.758 92.2515 326.711 92.6577 327.502 93.1994L326.419 95.8869C325.596 95.4025 324.742 95.0327 323.857 94.7827C322.966 94.5327 322.107 94.4077 321.273 94.4077C319.898 94.4077 318.877 94.6473 318.211 95.116C317.544 95.5744 317.211 96.189 317.211 96.9494C317.211 97.4806 317.398 97.9181 317.773 98.2619C318.159 98.5952 318.648 98.8608 319.232 99.0535C319.825 99.2515 320.633 99.4702 321.648 99.7202C323.023 100.043 324.153 100.376 325.044 100.72C325.93 101.069 326.69 101.606 327.315 102.324C327.95 103.033 328.273 103.991 328.273 105.199C328.273 106.231 327.992 107.158 327.44 107.991C326.883 108.824 326.034 109.491 324.898 109.991C323.758 110.491 322.367 110.741 320.732 110.741Z" fill="#740606"/>
<path d="M243.447 21.9897C239.952 21.9897 237.124 24.8231 237.124 28.3075C237.124 30.8179 238.593 32.9897 240.718 34.0054V36.172H246.181V34.0054C248.301 32.9897 249.77 30.8179 249.77 28.3075C249.765 24.8231 246.931 21.9897 243.447 21.9897Z" fill="#063F74"/>
<mask id="mask0_438_841" style="mask-type:luminance" maskUnits="userSpaceOnUse" x="240" y="35" width="8" height="5">
<path d="M240.598 35.2969H247.265V40H240.598V35.2969Z" fill="white"/>
</mask>
<g mask="url(#mask0_438_841)">
<path d="M240.713 36.177V38.4166C240.713 39.1458 241.307 39.7395 242.036 39.7395H244.848C245.577 39.7395 246.171 39.1458 246.171 38.4166V36.177H240.713Z" fill="#063F74"/>
</g>
<mask id="mask1_438_841" style="mask-type:luminance" maskUnits="userSpaceOnUse" x="231" y="16" width="26" height="24">
<path d="M231.088 16H256.088V40H231.088V16Z" fill="white"/>
</mask>
<g mask="url(#mask1_438_841)">
<path d="M243.447 21.7812C239.848 21.7812 236.916 24.7083 236.916 28.3072C236.916 30.7655 238.317 33.0364 240.51 34.1405V38.4635C240.51 39.2655 241.166 39.9218 241.968 39.9218H244.937C245.739 39.9218 246.395 39.2655 246.395 38.4635V34.1458C248.577 33.0468 249.989 30.7708 249.989 28.3176C249.973 24.7083 247.046 21.7812 243.447 21.7812ZM242.077 29.7603C241.114 29.6458 240.65 29.3541 240.65 28.6353C240.65 27.9999 240.989 27.7083 241.307 27.7083C241.494 27.7083 241.676 27.8072 241.812 27.9739C241.989 28.1926 242.077 28.5103 242.077 28.901V29.7603ZM243.447 30.2343C243.775 30.2343 244.093 30.2291 244.385 30.2135V35.9687H242.499V30.2135C242.796 30.2291 243.119 30.2343 243.447 30.2343ZM245.963 36.3853V37.0676H240.921V36.3853H245.963ZM240.921 37.4895H245.963V38.1718H240.921V37.4895ZM244.932 39.4947H241.958C241.432 39.4947 240.999 39.0989 240.926 38.5885H245.958C245.895 39.0989 245.463 39.4947 244.932 39.4947ZM246.083 33.8176C246.01 33.8541 245.963 33.9322 245.963 34.0051V35.9583H244.807V30.177C245.895 30.0572 246.656 29.703 246.656 28.6301C246.656 27.7499 246.109 27.2812 245.577 27.2812C245.265 27.2812 244.958 27.4374 244.744 27.7083C244.515 27.9999 244.385 28.4114 244.385 28.8958V29.7864C244.109 29.802 243.786 29.8072 243.447 29.8072C243.104 29.8072 242.781 29.802 242.505 29.7864V28.8958C242.505 28.4114 242.38 27.9999 242.15 27.7083C241.932 27.4374 241.624 27.2812 241.312 27.2812C240.775 27.2812 240.239 27.7447 240.239 28.6301C240.239 29.703 240.999 30.0572 242.088 30.177V35.9687H240.921V34.0155C240.921 33.9322 240.874 33.8593 240.801 33.828C238.697 32.8124 237.327 30.651 237.327 28.3176C237.327 24.9478 240.072 22.2083 243.437 22.2083C246.807 22.2083 249.546 24.9478 249.546 28.3176C249.557 30.6458 248.197 32.8072 246.083 33.8176ZM244.807 29.7603V28.901C244.807 28.5103 244.895 28.1926 245.072 27.9739C245.208 27.802 245.39 27.7083 245.577 27.7083C245.895 27.7083 246.234 27.9999 246.234 28.6353C246.234 29.3541 245.775 29.6458 244.807 29.7603ZM243.656 16.2291V19.8749C243.656 19.9947 243.562 20.0833 243.447 20.0833C243.327 20.0833 243.239 19.9947 243.239 19.8749V16.2291C243.239 16.1093 243.327 16.0208 243.447 16.0208C243.562 16.0208 243.656 16.1093 243.656 16.2291ZM234.999 28.3905H231.296C231.176 28.3905 231.088 28.302 231.088 28.1822C231.088 28.0624 231.176 27.9739 231.296 27.9739H234.999C235.119 27.9739 235.208 28.0624 235.208 28.1822C235.208 28.302 235.119 28.3905 234.999 28.3905ZM255.807 28.1822C255.807 28.302 255.713 28.3905 255.598 28.3905H251.89C251.775 28.3905 251.682 28.302 251.682 28.1822C251.682 28.0624 251.775 27.9739 251.89 27.9739H255.598C255.708 27.9739 255.807 28.0624 255.807 28.1822ZM237.619 22.1562C237.708 22.2395 237.708 22.3749 237.619 22.4478C237.577 22.4895 237.525 22.5103 237.473 22.5103C237.421 22.5103 237.369 22.4895 237.327 22.4478L234.708 19.8697C234.624 19.7864 234.624 19.651 234.708 19.578C234.791 19.4947 234.921 19.4947 234.999 19.578L237.619 22.1562ZM252.187 36.4895C252.27 36.5728 252.27 36.7083 252.187 36.7812C252.145 36.8228 252.088 36.8437 252.041 36.8437C251.984 36.8437 251.932 36.8228 251.89 36.7812L249.27 34.203C249.187 34.1197 249.187 33.9843 249.27 33.9114C249.354 33.828 249.484 33.828 249.562 33.9114L252.187 36.4895ZM237.619 33.9114C237.708 33.9947 237.697 34.1249 237.619 34.203L234.999 36.7812C234.958 36.8228 234.911 36.8437 234.854 36.8437C234.796 36.8437 234.739 36.8228 234.708 36.7812C234.624 36.6978 234.63 36.5676 234.708 36.4895L237.327 33.9114C237.411 33.828 237.546 33.828 237.619 33.9114ZM249.265 22.4583C249.176 22.3749 249.187 22.2395 249.265 22.1666L251.885 19.5833C251.968 19.4999 252.104 19.5051 252.176 19.5833C252.26 19.6666 252.255 19.802 252.176 19.8749L249.557 22.4583C249.515 22.4999 249.463 22.5208 249.411 22.5208C249.359 22.5208 249.307 22.4999 249.265 22.4583ZM240.395 20.4114C240.437 20.5155 240.39 20.6458 240.286 20.6874C240.26 20.6978 240.229 20.6978 240.202 20.6978C240.119 20.6978 240.041 20.651 240.005 20.5728L239.343 19.0051C239.301 18.901 239.354 18.776 239.458 18.7343C239.562 18.6926 239.687 18.7395 239.729 18.8437L240.395 20.4114ZM235.713 31.5572L234.114 32.2083C234.088 32.2239 234.057 32.2239 234.036 32.2239C233.952 32.2239 233.874 32.1718 233.843 32.0885C233.801 31.9843 233.848 31.8593 233.952 31.8176L235.551 31.1666C235.656 31.1249 235.781 31.177 235.822 31.2812C235.864 31.401 235.817 31.5155 235.713 31.5572ZM251.182 24.8072L252.775 24.1614C252.885 24.1145 253.01 24.1666 253.051 24.2708C253.093 24.3749 253.041 24.4999 252.937 24.5416L251.343 25.1926C251.312 25.203 251.286 25.203 251.265 25.203C251.182 25.203 251.104 25.1562 251.067 25.0728C251.02 24.9687 251.077 24.8489 251.182 24.8072ZM247.531 19.0051L246.869 20.5728C246.838 20.651 246.76 20.6978 246.676 20.6978C246.645 20.6978 246.619 20.6926 246.593 20.6874C246.489 20.6458 246.437 20.5155 246.479 20.4114L247.14 18.8437C247.182 18.7395 247.312 18.6926 247.416 18.7343C247.531 18.776 247.583 18.8905 247.531 19.0051ZM233.843 24.2708C233.885 24.1666 234.01 24.1093 234.114 24.1614L235.713 24.8072C235.817 24.8489 235.869 24.9739 235.822 25.078C235.786 25.1614 235.713 25.2135 235.624 25.2135C235.598 25.2135 235.572 25.203 235.551 25.1978L233.952 24.552C233.848 24.4947 233.791 24.3749 233.843 24.2708ZM253.051 32.0937C253.015 32.1822 252.937 32.2291 252.854 32.2291C252.827 32.2291 252.796 32.2239 252.775 32.2135L251.182 31.5676C251.077 31.526 251.02 31.401 251.067 31.2916C251.109 31.1874 251.239 31.1353 251.343 31.1822L252.937 31.8333C253.041 31.8749 253.093 31.9895 253.051 32.0937Z" fill="#063F74"/>
</g>
</svg>
